<?xml version="1.0" encoding="UTF-8" standalone="no"?>
<svg
   xmlns:dc="http://purl.org/dc/elements/1.1/"
   xmlns:cc="http://creativecommons.org/ns#"
   xmlns:rdf="http://www.w3.org/1999/02/22-rdf-syntax-ns#"
   xmlns:svg="http://www.w3.org/2000/svg"
   xmlns="http://www.w3.org/2000/svg"
   xmlns:xlink="http://www.w3.org/1999/xlink"
   xmlns:sodipodi="http://sodipodi.sourceforge.net/DTD/sodipodi-0.dtd"
   xmlns:inkscape="http://www.inkscape.org/namespaces/inkscape"
   version="1.1"
   id="svg2"
   height="300"
   width="1200"
   inkscape:version="0.91 r13725"
   sodipodi:docname="documentation.svg"
   inkscape:export-filename="C:\wamp\www\papyrus\img\documentation.png"
   inkscape:export-xdpi="37.5"
   inkscape:export-ydpi="37.5">
  <sodipodi:namedview
     pagecolor="#ffffff"
     bordercolor="#666666"
     borderopacity="1"
     objecttolerance="10"
     gridtolerance="10"
     guidetolerance="10"
     inkscape:pageopacity="0"
     inkscape:pageshadow="2"
     inkscape:window-width="1366"
     inkscape:window-height="706"
     id="namedview15"
     showgrid="false"
     inkscape:zoom="0.42335052"
     inkscape:cx="538.01186"
     inkscape:cy="310.76956"
     inkscape:window-x="-8"
     inkscape:window-y="-8"
     inkscape:window-maximized="1"
     inkscape:current-layer="svg2" />
  <defs
     id="defs4">
    <linearGradient
       inkscape:collect="always"
       id="linearGradient4257">
      <stop
         style="stop-color:#006578;stop-opacity:1;"
         offset="0"
         id="stop4259" />
      <stop
         style="stop-color:#006578;stop-opacity:0;"
         offset="1"
         id="stop4261" />
    </linearGradient>
    <linearGradient
       inkscape:collect="always"
       id="linearGradient4249">
      <stop
         style="stop-color:#006578;stop-opacity:1;"
         offset="0"
         id="stop4251" />
      <stop
         style="stop-color:#006578;stop-opacity:0;"
         offset="1"
         id="stop4253" />
    </linearGradient>
    <linearGradient
       inkscape:collect="always"
       id="linearGradient4241">
      <stop
         style="stop-color:#006578;stop-opacity:1;"
         offset="0"
         id="stop4243" />
      <stop
         style="stop-color:#006578;stop-opacity:0;"
         offset="1"
         id="stop4245" />
    </linearGradient>
    <linearGradient
       inkscape:collect="always"
       id="linearGradient4233">
      <stop
         style="stop-color:#006578;stop-opacity:1;"
         offset="0"
         id="stop4235" />
      <stop
         style="stop-color:#006578;stop-opacity:0;"
         offset="1"
         id="stop4237" />
    </linearGradient>
    <linearGradient
       inkscape:collect="always"
       xlink:href="#linearGradient4233"
       id="linearGradient4239"
       x1="145.43349"
       y1="164.967"
       x2="225.97597"
       y2="272.69897"
       gradientUnits="userSpaceOnUse" />
    <linearGradient
       inkscape:collect="always"
       xlink:href="#linearGradient4241"
       id="linearGradient4247"
       x1="453.45938"
       y1="163.11668"
       x2="502.82101"
       y2="279.19998"
       gradientUnits="userSpaceOnUse" />
    <linearGradient
       inkscape:collect="always"
       xlink:href="#linearGradient4249"
       id="linearGradient4255"
       x1="758.66431"
       y1="165.11951"
       x2="822.21692"
       y2="264.82745"
       gradientUnits="userSpaceOnUse" />
    <linearGradient
       inkscape:collect="always"
       xlink:href="#linearGradient4257"
       id="linearGradient4263"
       x1="1057.3156"
       y1="175.07034"
       x2="1107.9702"
       y2="268.60507"
       gradientUnits="userSpaceOnUse" />
  </defs>
  <metadata
     id="metadata7">
    <rdf:RDF>
      <cc:Work
         rdf:about="">
        <dc:format>image/svg+xml</dc:format>
        <dc:type
           rdf:resource="http://purl.org/dc/dcmitype/StillImage" />
        <dc:title></dc:title>
      </cc:Work>
    </rdf:RDF>
  </metadata>
  <circle
     style="opacity:1;fill:#0099ba;fill-opacity:1;stroke:none;stroke-width:5;stroke-linecap:round;stroke-linejoin:round;stroke-miterlimit:4;stroke-dasharray:none;stroke-dashoffset:0;stroke-opacity:1"
     id="path4186"
     cx="150"
     cy="150"
     r="125" />
  <path
     style="opacity:1;fill:url(#linearGradient4239);fill-opacity:1;stroke:none;stroke-width:5;stroke-linecap:round;stroke-linejoin:round;stroke-miterlimit:4;stroke-dasharray:none;stroke-dashoffset:0;stroke-opacity:1"
     d="M 209.20117 81.658203 L 88.644531 213.04297 L 101.54297 265.21289 A 125 125 0 0 0 150 275 A 125 125 0 0 0 271.9082 177.18555 L 209.20117 81.658203 z "
     id="circle4206" />
  <circle
     r="125"
     cy="150"
     cx="450"
     id="circle4188"
     style="opacity:1;fill:#0099ba;fill-opacity:1;stroke:none;stroke-width:5;stroke-linecap:round;stroke-linejoin:round;stroke-miterlimit:4;stroke-dasharray:none;stroke-dashoffset:0;stroke-opacity:1" />
  <path
     style="opacity:1;fill:url(#linearGradient4247);fill-opacity:1;stroke:none;stroke-width:5;stroke-linecap:round;stroke-linejoin:round;stroke-miterlimit:4;stroke-dasharray:none;stroke-dashoffset:0;stroke-opacity:1"
     d="M 519.0918 123.05469 L 374.95703 204.96484 L 388.20508 258.55273 A 125 125 0 0 0 450 275 A 125 125 0 0 0 566.29102 195.50586 L 519.0918 123.05469 z "
     id="circle4211" />
  <circle
     style="opacity:1;fill:#0099ba;fill-opacity:1;stroke:none;stroke-width:5;stroke-linecap:round;stroke-linejoin:round;stroke-miterlimit:4;stroke-dasharray:none;stroke-dashoffset:0;stroke-opacity:1"
     id="circle4190"
     cx="750"
     cy="150"
     r="125" />
  <path
     style="opacity:1;fill:url(#linearGradient4255);fill-opacity:1;stroke:none;stroke-width:5;stroke-linecap:round;stroke-linejoin:round;stroke-miterlimit:4;stroke-dasharray:none;stroke-dashoffset:0;stroke-opacity:1"
     d="m 820.72656,85.15625 -3.90368,103.85434 -90.6821,4.9552 -50.41226,-13.51462 25.25976,84.51953 C 716.48279,271.58228 733.15385,274.99369 750,275 812.2628,274.9248 864.97736,229.03888 873.63477,167.38086 Z"
     id="circle4216"
     inkscape:connector-curvature="0"
     sodipodi:nodetypes="cccccccc" />
  <circle
     r="125"
     cy="150"
     cx="1050"
     id="circle4192"
     style="opacity:1;fill:#0099ba;fill-opacity:1;stroke:none;stroke-width:5;stroke-linecap:round;stroke-linejoin:round;stroke-miterlimit:4;stroke-dasharray:none;stroke-dashoffset:0;stroke-opacity:1" />
  <path
     style="opacity:1;fill:url(#linearGradient4263);fill-opacity:1;stroke:none;stroke-width:5;stroke-linecap:round;stroke-linejoin:round;stroke-miterlimit:4;stroke-dasharray:none;stroke-dashoffset:0;stroke-opacity:1"
     d="m 1124.9883,103.53516 -14.2672,48.71811 -135.24844,30.10806 23.06445,81.42578 C 1014.7003,271.13742 1032.244,274.9599 1050,275 c 59.0956,-0.0208 110.1026,-41.4236 122.2754,-99.25195 z"
     id="circle4226"
     inkscape:connector-curvature="0"
     sodipodi:nodetypes="ccccccc" />
  <path
     style="fill:#0099ba;stroke:#ffffff;stroke-width:5;stroke-miterlimit:4;stroke-dasharray:none;stroke-opacity:1"
     d="m 451.39565,97.046517 c -39.10674,0 -70.80908,19.630863 -70.80908,43.921013 0,13.53281 9.85774,25.73459 25.33638,33.80229 -5.18255,8.63831 -13.75379,17.26954 -22.34911,25.90798 21.31682,-5.63838 32.16175,-9.71096 40.71523,-19.01397 8.35517,2.15411 17.49661,3.3357 27.1066,3.3357 39.10674,0 70.80906,-19.74185 70.80906,-44.032 0,-24.29015 -31.70232,-43.921013 -70.80906,-43.921013 z"
     id="path3911"
     inkscape:connector-curvature="0" />
  <path
     inkscape:connector-curvature="0"
     id="path4160"
     d="m 1088.12,165.49154 36.8748,30.98856 0,-92.95841 -36.8748,30.98854 z"
     style="fill:#ffffff;fill-opacity:1;stroke:none" />
  <path
     inkscape:connector-curvature="0"
     style="fill:#0099ba;fill-opacity:1;stroke:#ffffff;stroke-width:5.00000048;stroke-miterlimit:4;stroke-dasharray:none"
     d="m 995.9322,103.52077 c -10.21432,0 -18.43739,8.29192 -18.43739,18.59169 l 0,55.77508 c 0,10.29979 8.22307,18.59169 18.43739,18.59169 l 73.7496,0 c 10.2143,0 18.4374,-8.2919 18.4374,-18.59169 l 0,-12.39688 0,-30.98131 0,-12.39689 c 0,-10.29977 -8.2231,-18.59169 -18.4374,-18.59169 l -73.7496,0 z"
     id="path4162" />
  <path
     style="color:#000000;font-style:normal;font-variant:normal;font-weight:normal;font-stretch:normal;font-size:medium;line-height:normal;font-family:Sans;-inkscape-font-specification:Sans;text-indent:0;text-align:start;text-decoration:none;text-decoration-line:none;letter-spacing:normal;word-spacing:normal;text-transform:none;direction:ltr;block-progression:tb;writing-mode:lr-tb;baseline-shift:baseline;text-anchor:start;display:inline;overflow:visible;visibility:visible;fill:#ffffff;fill-opacity:1;stroke:none;stroke-width:3;marker:none;enable-background:accumulate"
     d="m 697.6765,75.622235 c -12.47116,0 -22.67652,10.202956 -22.6765,22.674091 l 0,55.812364 0,10.68455 0,10.24872 c 0,12.47118 10.20534,22.67409 22.6765,22.67409 l 27.73913,0 c -4.17098,7.36792 -9.87304,12.34775 -14.13226,16.74952 -3.54129,3.65752 -1.03192,9.91018 3.97796,9.91219 l 34.5934,0 0.29054,0 34.59583,0 c 5.00988,-0.002 7.51925,-6.25467 3.97795,-9.91219 -4.25921,-4.40177 -9.9637,-9.3816 -14.13469,-16.74952 l 27.74155,0 c 12.47117,0 22.67408,-10.20291 22.67409,-22.67409 l 0,-10.24872 0,-10.68455 0,-55.812364 C 825,85.825191 814.79708,75.622235 802.32591,75.622235 l -104.64941,0 z m -3.96343,11.270463 112.50121,0 c 3.75002,0 7.50073,3.750709 7.50073,7.500724 l 0,71.249628 c 0,3.75002 -3.75071,7.50073 -7.50073,7.50073 l -112.50121,0 c -3.75001,0 -7.49829,-3.75071 -7.49829,-7.50073 l 0,-71.249628 c 0,-3.750015 3.74817,-7.500724 7.49829,-7.500724 z m 56.28692,94.541102 c 2.38958,-6.8e-4 4.3273,1.9346 4.32661,4.32417 -6.6e-4,2.38862 -1.93798,4.32489 -4.32661,4.32419 -2.38766,-6.4e-4 -4.32351,-1.93651 -4.32417,-4.32419 -6.9e-4,-2.38861 1.93556,-4.32351 4.32417,-4.32417 z"
     id="path4175"
     inkscape:connector-curvature="0" />
  <g
     id="g4175"
     transform="matrix(1.3708601,0,0,1.3670731,49.391718,45.521014)"
     style="fill:#0099ba;stroke:#ffffff;stroke-width:0.7304787">
    <rect
       ry="8.9886503"
       y="23.392302"
       x="30.245131"
       height="106.06602"
       width="86.290993"
       id="rect4140"
       style="opacity:1;fill:#0099ba;fill-opacity:1;stroke:#ffffff;stroke-width:3.65239358;stroke-linecap:round;stroke-linejoin:round;stroke-miterlimit:4;stroke-dasharray:none;stroke-dashoffset:0;stroke-opacity:1" />
    <path
       style="fill:#0099ba;fill-rule:evenodd;stroke:#ffffff;stroke-width:3.65239358;stroke-linecap:butt;stroke-linejoin:miter;stroke-miterlimit:4;stroke-dasharray:none;stroke-opacity:1"
       d="m 44.293683,76.425308 58.193887,0"
       id="path4151"
       inkscape:connector-curvature="0" />
    <path
       inkscape:connector-curvature="0"
       id="path4153"
       d="m 44.293683,93.207065 58.193887,0"
       style="fill:#0099ba;fill-rule:evenodd;stroke:#ffffff;stroke-width:3.65239358;stroke-linecap:butt;stroke-linejoin:miter;stroke-miterlimit:4;stroke-dasharray:none;stroke-opacity:1" />
    <path
       style="fill:#0099ba;fill-rule:evenodd;stroke:#ffffff;stroke-width:3.65239358;stroke-linecap:butt;stroke-linejoin:miter;stroke-miterlimit:4;stroke-dasharray:none;stroke-opacity:1"
       d="m 44.293683,109.98882 58.193887,0"
       id="path4155"
       inkscape:connector-curvature="0" />
    <path
       inkscape:connector-curvature="0"
       id="path4157"
       d="m 73.888879,42.861801 27.768921,0"
       style="fill:#0099ba;fill-rule:evenodd;stroke:#ffffff;stroke-width:3.65239358;stroke-linecap:butt;stroke-linejoin:miter;stroke-miterlimit:4;stroke-dasharray:none;stroke-opacity:1" />
    <rect
       ry="0"
       y="40.361801"
       x="44.293682"
       height="22.127249"
       width="19.361341"
       id="rect4166"
       style="opacity:1;fill:#0099ba;fill-opacity:1;stroke:#ffffff;stroke-width:3.65239358;stroke-linecap:round;stroke-linejoin:round;stroke-miterlimit:4;stroke-dasharray:none;stroke-dashoffset:0;stroke-opacity:1" />
    <path
       style="fill:#0099ba;fill-rule:evenodd;stroke:#ffffff;stroke-width:3.65239358;stroke-linecap:butt;stroke-linejoin:miter;stroke-miterlimit:4;stroke-dasharray:none;stroke-opacity:1"
       d="m 73.888879,59.643555 27.768921,0"
       id="path4173"
       inkscape:connector-curvature="0" />
  </g>
</svg>
