<?xml version="1.0" encoding="UTF-8" standalone="no"?>
<svg
   xmlns:dc="http://purl.org/dc/elements/1.1/"
   xmlns:cc="http://creativecommons.org/ns#"
   xmlns:rdf="http://www.w3.org/1999/02/22-rdf-syntax-ns#"
   xmlns:svg="http://www.w3.org/2000/svg"
   xmlns="http://www.w3.org/2000/svg"
   xmlns:sodipodi="http://sodipodi.sourceforge.net/DTD/sodipodi-0.dtd"
   xmlns:inkscape="http://www.inkscape.org/namespaces/inkscape"
   width="52"
   height="52"
   id="svg2"
   version="1.1"
   inkscape:version="0.91 r13725"
   sodipodi:docname="gerrit.svg"
   inkscape:export-filename="C:\wamp\www\papyrus\community\img\gerrit.png"
   inkscape:export-xdpi="110.76923"
   inkscape:export-ydpi="110.76923">
  <metadata
     id="metadata20">
    <rdf:RDF>
      <cc:Work
         rdf:about="">
        <dc:format>image/svg+xml</dc:format>
        <dc:type
           rdf:resource="http://purl.org/dc/dcmitype/StillImage" />
      </cc:Work>
    </rdf:RDF>
  </metadata>
  <defs
     id="defs18" />
  <sodipodi:namedview
     pagecolor="#ffffff"
     bordercolor="#666666"
     borderopacity="1"
     objecttolerance="10"
     gridtolerance="10"
     guidetolerance="10"
     inkscape:pageopacity="0"
     inkscape:pageshadow="2"
     inkscape:window-width="766"
     inkscape:window-height="480"
     id="namedview16"
     showgrid="false"
     inkscape:zoom="2.2692308"
     inkscape:cx="-88.995409"
     inkscape:cy="100.40227"
     inkscape:window-x="422"
     inkscape:window-y="642"
     inkscape:window-maximized="0"
     inkscape:current-layer="svg2" />
  <rect
     ry="3.9000001"
     rx="3.8999999"
     height="39"
     width="39"
     y="0.49999997"
     x="0.49999997"
     id="rect4"
     style="fill:#ffffff;stroke:#333333;stroke-width:0.99999994" />
  <rect
     ry="4"
     rx="4"
     height="40"
     width="40"
     y="12"
     x="12"
     fill="#aaffaa"
     id="rect6"
     style="fill:#333333" />
  <path
     d="m18,22l12,0l0,4l-12,0l0,-4z"
     fill="#ff0000"
     id="path8"
     style="fill:#ffffff" />
  <path
     d="m34,22l12,0l0,4l-12,0l0,-4z"
     fill="#ff0000"
     id="path10"
     style="fill:#ffffff" />
  <path
     d="m18,36l4,0l0,-4l4,0l0,4l4,0l0,4l-4,0l0,4l-4,0l0,-4l-4,0l0,-4z"
     fill="#008000"
     id="path12"
     style="fill:#ffffff" />
  <path
     d="m34,36l4,0l0,-4l4,0l0,4l4,0l0,4l-4,0l0,4l-4,0l0,-4l-4,0l0,-4z"
     fill="#008000"
     id="path14"
     style="fill:#ffffff" />
</svg>
