<?xml version="1.0" encoding="UTF-8" standalone="no"?>
<svg
   xmlns:dc="http://purl.org/dc/elements/1.1/"
   xmlns:cc="http://creativecommons.org/ns#"
   xmlns:rdf="http://www.w3.org/1999/02/22-rdf-syntax-ns#"
   xmlns:svg="http://www.w3.org/2000/svg"
   xmlns="http://www.w3.org/2000/svg"
   xmlns:sodipodi="http://sodipodi.sourceforge.net/DTD/sodipodi-0.dtd"
   xmlns:inkscape="http://www.inkscape.org/namespaces/inkscape"
   viewBox="0 0 128 128"
   id="svg2"
   version="1.1"
   inkscape:version="0.91 r13725"
   sodipodi:docname="git.svg"
   width="128"
   height="128"
   inkscape:export-filename="C:\wamp\www\papyrus\community\img\git.png"
   inkscape:export-xdpi="50.560333"
   inkscape:export-ydpi="50.560333">
  <metadata
     id="metadata16">
    <rdf:RDF>
      <cc:Work
         rdf:about="">
        <dc:format>image/svg+xml</dc:format>
        <dc:type
           rdf:resource="http://purl.org/dc/dcmitype/StillImage" />
        <dc:title></dc:title>
      </cc:Work>
    </rdf:RDF>
  </metadata>
  <defs
     id="defs14" />
  <sodipodi:namedview
     pagecolor="#ffffff"
     bordercolor="#666666"
     borderopacity="1"
     objecttolerance="10"
     gridtolerance="10"
     guidetolerance="10"
     inkscape:pageopacity="0"
     inkscape:pageshadow="2"
     inkscape:window-width="1479"
     inkscape:window-height="906"
     id="namedview12"
     showgrid="false"
     inkscape:zoom="2.7256742"
     inkscape:cx="170.26926"
     inkscape:cy="3.3554462"
     inkscape:window-x="423"
     inkscape:window-y="343"
     inkscape:window-maximized="0"
     inkscape:current-layer="svg2" />
  <path
     d="M 118.81594,58.925849 69.070938,9.186949 c -2.8622,-2.8648 -7.5082,-2.8648 -10.374,0 l -10.329,10.33 13.102,13.102 c 3.0459,-1.0284 6.5371,-0.33888 8.9639,2.0884 2.4394,2.4424 3.124,5.9634 2.069799,9.0195 l 12.628001,12.628 c 3.055099,-1.0528 6.579999,-0.37262 9.0195,2.0712 3.410599,3.4096 3.410599,8.9345 0,12.345 -3.411101,3.4116 -8.936001,3.4116 -12.349001,0 -2.564499,-2.5665 -3.1988,-6.3345 -1.8999,-9.4942 l -11.777,-11.777 -0.001,30.991 c 0.8315,0.41162 1.6162,0.961 2.3091,1.6509 3.409601,3.4092 3.409601,8.9331 0,12.348002 -3.4106,3.4091 -8.938,3.4091 -12.345,0 -3.4101,-3.414602 -3.4101,-8.938502 0,-12.348002 0.84275,-0.84125 1.8179,-1.478 2.8584,-1.9048 l 0,-31.279 c -1.041,-0.425 -2.015,-1.057 -2.859,-1.905 -2.583,-2.581 -3.2051,-6.372 -1.8804,-9.5439 l -12.916,-12.918 -34.1059995,34.105 c -2.8657,2.867 -2.8657,7.513 0,10.378 L 58.927337,118.81305 c 2.8638,2.8648 7.5082,2.8648 10.376,0 L 118.81534,69.309049 c 2.8648,-2.8662 2.8648,-7.5136 0,-10.379"
     id="path10"
     inkscape:connector-curvature="0"
     style="fill:#333333" />
</svg>
