<?xml version="1.0" encoding="UTF-8" standalone="no"?>
<!-- Created with Inkscape (http://www.inkscape.org/) -->

<svg
   xmlns:dc="http://purl.org/dc/elements/1.1/"
   xmlns:cc="http://creativecommons.org/ns#"
   xmlns:rdf="http://www.w3.org/1999/02/22-rdf-syntax-ns#"
   xmlns:svg="http://www.w3.org/2000/svg"
   xmlns="http://www.w3.org/2000/svg"
   xmlns:sodipodi="http://sodipodi.sourceforge.net/DTD/sodipodi-0.dtd"
   xmlns:inkscape="http://www.inkscape.org/namespaces/inkscape"
   width="210mm"
   height="297mm"
   viewBox="0 0 744.09448819 1052.3622047"
   id="svg2"
   version="1.1"
   inkscape:version="0.91 r13725"
   sodipodi:docname="os.svg">
  <defs
     id="defs4" />
  <sodipodi:namedview
     id="base"
     pagecolor="#ffffff"
     bordercolor="#666666"
     borderopacity="1.0"
     inkscape:pageopacity="0.0"
     inkscape:pageshadow="2"
     inkscape:zoom="0.62016872"
     inkscape:cx="268.43489"
     inkscape:cy="306.36844"
     inkscape:document-units="px"
     inkscape:current-layer="layer1"
     showgrid="false"
     inkscape:window-width="1366"
     inkscape:window-height="706"
     inkscape:window-x="-8"
     inkscape:window-y="-8"
     inkscape:window-maximized="1" />
  <metadata
     id="metadata7">
    <rdf:RDF>
      <cc:Work
         rdf:about="">
        <dc:format>image/svg+xml</dc:format>
        <dc:type
           rdf:resource="http://purl.org/dc/dcmitype/StillImage" />
        <dc:title />
      </cc:Work>
    </rdf:RDF>
  </metadata>
  <g
     inkscape:label="Calque 1"
     inkscape:groupmode="layer"
     id="layer1">
    <g
       id="g4165"
       style="fill:#444444;fill-opacity:1"
       transform="matrix(3.2179655,0,0,3.2257347,-349.37487,-583.25844)"
       inkscape:export-xdpi="14.4"
       inkscape:export-ydpi="14.4">
      <path
         sodipodi:nodetypes="ccccc"
         inkscape:connector-curvature="0"
         id="path4147"
         d="m 120.44335,363.85646 25.53366,-3.11987 0.1642,24.79474 -25.69786,0 z"
         style="fill:#444444;fill-opacity:1;fill-rule:evenodd;stroke:none;stroke-width:1px;stroke-linecap:butt;stroke-linejoin:miter;stroke-opacity:1" />
      <path
         style="fill:#444444;fill-opacity:1;fill-rule:evenodd;stroke:none;stroke-width:1px;stroke-linecap:butt;stroke-linejoin:miter;stroke-opacity:1"
         d="m 149.01478,360.07977 33.57964,-4.2693 0,29.72086 -33.57964,0 z"
         id="path4149"
         inkscape:connector-curvature="0"
         sodipodi:nodetypes="ccccc" />
      <path
         style="fill:#444444;fill-opacity:1;fill-rule:evenodd;stroke:none;stroke-width:1px;stroke-linecap:butt;stroke-linejoin:miter;stroke-opacity:1"
         d="m 120.44335,409.76586 25.53366,3.11987 0.1642,-24.79474 -25.69786,0 z"
         id="path4157"
         inkscape:connector-curvature="0"
         sodipodi:nodetypes="ccccc" />
      <path
         sodipodi:nodetypes="ccccc"
         inkscape:connector-curvature="0"
         id="path4159"
         d="m 149.01478,413.54255 33.57964,4.2693 0,-29.72086 -33.57964,0 z"
         style="fill:#444444;fill-opacity:1;fill-rule:evenodd;stroke:none;stroke-width:1px;stroke-linecap:butt;stroke-linejoin:miter;stroke-opacity:1" />
    </g>
    <g
       id="g4186"
       transform="matrix(0.66218588,0,0,0.66218588,303.00179,762.43891)"
       style="fill:#444444;fill-opacity:1"
       inkscape:export-xdpi="14.4"
       inkscape:export-ydpi="14.4">
      <path
         id="path4188"
         d="m 132,-206 c 0,1 -1,1 -1,1 l -1,0 c -1,0 -1,-1 -2,-2 0,0 -1,-1 -1,-2 0,-1 0,-1 1,-1 l 2,1 c 1,1 2,2 2,3 m -18,-10 c 0,-5 -2,-8 -5,-8 0,0 0,1 -1,1 l 0,2 3,0 c 0,2 1,3 1,5 l 2,0 m 35,-5 c 2,0 3,2 4,5 l 2,0 c -1,-1 -1,-2 -1,-3 0,-1 0,-2 -1,-3 -1,-1 -2,-2 -3,-2 0,0 -1,1 -2,1 0,1 1,1 1,2 m -30,16 c -1,0 -1,0 -1,-1 0,-1 0,-2 1,-3 2,0 3,-1 3,-1 1,0 1,1 1,1 0,1 -1,2 -3,4 l -1,0 m -11,-1 c -4,-2 -5,-5 -5,-10 0,-3 0,-5 2,-7 1,-2 3,-3 5,-3 2,0 3,1 5,3 1,3 2,6 2,9 l 0,1 0,1 1,0 0,-1 c 1,0 1,-2 1,-6 0,-3 0,-6 -2,-9 -2,-3 -4,-5 -8,-5 -3,0 -6,2 -7,5 -2,4 -2.4,7 -2.4,12 0,4 1.4,8 5.4,12 1,-1 2,-1 3,-2 m 125,141 c 1,0 1,-0.4 1,-1.3 0,-2.2 -1,-4.8 -4,-7.7 -3,-3 -8,-4.9 -14,-5.7 -1,-0.1 -2,-0.1 -2,-0.1 -1,-0.2 -1,-0.2 -2,-0.2 -1,-0.1 -3,-0.3 -4,-0.5 3,-9.3 4,-17.5 4,-24.7 0,-10 -2,-17 -6,-23 -4,-6 -8,-9 -13,-10 -1,1 -1,1 -1,2 5,2 10,6 13,12 3,7 4,13 4,20 0,5.6 -1,13.9 -5,24.5 -4,1.6 -8,5.3 -11,11.1 0,0.9 0,1.4 1,1.4 0,0 1,-0.9 2,-2.6 2,-1.7 3,-3.4 5,-5.1 3,-1.7 5,-2.6 8,-2.6 5,0 10,0.7 13,2.1 4,1.3 6,2.7 7,4.3 1,1.5 2,2.9 3,4.2 0,1.3 1,1.9 1,1.9 m -92,-145 c -1,-1 -1,-3 -1,-5 0,-4 0,-6 2,-9 2,-2 4,-3 6,-3 3,0 5,2 7,4 1,3 2,5 2,8 0,5 -2,8 -6,9 0,0 1,1 2,1 2,0 3,1 5,2 1,-6 2,-10 2,-15 0,-6 -1,-10 -3,-13 -3,-3 -6,-4 -10,-4 -3,0 -6,1 -9,3 -2,3 -3,5 -3,8 0,5 1,9 3,13 1,0 2,1 3,1 m 12,16 c -13,9 -23,13 -31,13 -7,0 -14,-3 -20,-8 1,2 2,4 3,5 l 6,6 c 4,4 9,6 14,6 7,0 15,-4 25,-11 l 9,-6 c 2,-2 4,-4 4,-7 0,-1 0,-2 -1,-2 -1,-2 -6,-5 -16,-8 -9,-4 -16,-6 -20,-6 -3,0 -8,2 -15,6 -6,4 -10,8 -10,12 0,0 1,1 2,3 6,5 12,8 18,8 8,0 18,-4 31,-14 l 0,2 c 1,0 1,1 1,1 M 176,8 c 4,7.52 11,11.3 19,11.3 2,0 4,-0.3 6,-0.9 2,-0.4 4,-1.1 5,-1.9 1,-0.7 2,-1.4 3,-2.2 2,-0.7 2,-1.2 3,-1.7 l 17,-14.7 c 4,-3.19 8,-5.98 13,-8.4 4,-2.4 8,-4 10,-4.9 3,-0.8 5,-2 7,-3.6 1,-1.5 2,-3.4 2,-5.8 0,-2.9 -2,-5.1 -4,-6.7 -2,-1.6 -4,-2.7 -6,-3.4 -2,-0.7 -4,-2.3 -7,-5 -2,-2.6 -4,-6.2 -5,-10.9 l -1,-5.8 c -1,-2.7 -1,-4.7 -2,-5.8 0,-0.3 0,-0.4 -1,-0.4 -1,0 -3,0.9 -4,2.6 -2,1.7 -4,3.6 -6,5.6 -1,2 -4,3.8 -6,5.5 -3,1.7 -6,2.6 -8,2.6 -8,0 -12,-2.2 -15,-6.5 -2,-3.2 -3,-6.9 -4,-11.1 -2,-1.7 -3,-2.6 -5,-2.6 -5,0 -7,5.2 -7,15.7 l 0,3.3 0,11.6 0,8.9 0,4.3 0,3 c 0,0.9 -1,2.9 -1,6 -1,3.1 -1,6.62 -1,10.6 l -2,11.1 0,0.17 M 31,2.68 c 9.3,1.36 20,4.27 32.1,8.71 12.1,4.4 19.5,6.7 22.2,6.7 7,0 12.8,-3.1 17.6,-9.09 1,-1.94 1,-4.22 1,-6.84 0,-9.45 -5.7,-21.4 -17.1,-35.9 l -6.8,-9.1 c -1.4,-1.9 -3.1,-4.8 -5.3,-8.7 -2.1,-3.9 -4,-6.9 -5.5,-9 -1.3,-2.3 -3.4,-4.6 -6.1,-6.9 -2.6,-2.3 -5.6,-3.8 -8.9,-4.6 -4.2,0.8 -7.1,2.2 -8.5,4.1 -1.4,1.9 -2.2,4 -2.4,6.2 -0.3,2.1 -0.9,3.5 -1.9,4.2 -1,0.6 -2.7,1.1 -5,1.6 -0.5,0 -1.4,0 -2.7,0.1 l -2.7,0 c -5.3,0 -8.9,0.6 -10.8,1.6 -2.5,2.9 -3.8,6.2 -3.8,9.7 0,1.6 0.4,4.3 1.2,8.1 0.8,3.7 1.2,6.7 1.2,8.8 0,4.1 -1.2,8.2 -3.7,12.3 -2.5,4.3 -3.8,7.5 -3.8,9.78 1,3.88 7.6,6.61 19.7,8.21 m 33.3,-90.9 c 0,-6.9 1.8,-14.5 5.5,-23.5 3.6,-9 7.2,-15 10.7,-19 -0.2,-1 -0.7,-1 -1.5,-1 l -1,-1 c -2.9,3 -6.4,10 -10.6,20 -4.2,9 -6.4,17.3 -6.4,23.4 0,4.5 1.1,8.4 3.1,11.8 2.2,3.3 7.5,8.1 15.9,14.2 l 10.6,6.9 c 11.3,9.8 17.3,16.6 17.3,20.6 0,2.1 -1,4.2 -4,6.5 -2,2.4 -4.7,3.6 -7,3.6 -0.2,0 -0.3,0.2 -0.3,0.7 0,0.1 1,2.1 3.1,6 4.2,5.7 13.2,8.5 25.2,8.5 22,0 39,-9 52,-27 0,-5 0,-8.1 -1,-9.4 l 0,-3.7 c 0,-6.5 1,-11.4 3,-14.6 2,-3.2 4,-4.7 7,-4.7 2,0 4,0.7 6,2.2 1,-7.7 1,-14.4 1,-20.4 0,-9.1 0,-16.6 -2,-23.6 -1,-6 -3,-11 -5,-15 -2,-3 -4,-6 -6,-9 -2,-3 -3,-6 -5,-9 -1,-4 -2,-7 -2,-12 -3,-5 -5,-10 -8,-15 -2,-5 -4,-10 -6,-14 l -9,7 c -10,7 -18,10 -25,10 -6,0 -11,-1 -14,-5 l -6,-5 c 0,3 -1,7 -3,11 l -6.3,12 c -2.8,7 -4.3,11 -4.6,14 -0.4,2 -0.7,4 -0.9,4 l -7.5,15 c -8.1,15 -12.2,28.9 -12.2,40.4 0,2.3 0.2,4.7 0.6,7.1 -4.5,-3.1 -6.7,-7.4 -6.7,-13 m 71.6,94.6 c -13,0 -23,1.76 -30,5.25 l 0,-0.3 c -5,6 -10.6,9.1 -18.4,9.1 -4.9,0 -12.6,-1.9 -23,-5.7 C 54,11.1 44.7,8.34 36.6,6.52 35.8,6.29 34,5.95 31.1,5.49 28.3,5.04 25.7,4.58 23.4,4.12 21.3,3.67 18.9,2.99 16.3,2.07 13.8,1.28 11.8,0.25 10.3,-1 8.92,-2.26 8.24,-3.68 8.24,-5.27 c 0,-1.6 0.34,-3.31 1.02,-5.13 0.64,-1.1 1.34,-2.2 2.04,-3.2 0.7,-1.1 1.3,-2.1 1.7,-3.1 0.6,-0.9 1,-1.8 1.4,-2.8 0.4,-0.9 0.8,-1.8 1,-2.9 0.2,-1 0.4,-2 0.4,-3 0,-1 -0.4,-4 -1.2,-9.3 -0.8,-5.2 -1.2,-8.5 -1.2,-9.9 0,-4.4 1,-7.9 3.2,-10.4 2.2,-2.5 4.3,-3.8 6.5,-3.8 l 11.5,0 c 0.9,0 2.3,-0.5 4.4,-1.7 0.7,-1.6 1.3,-2.9 1.7,-4.1 0.5,-1.2 0.7,-2.1 0.9,-2.5 0.2,-0.6 0.4,-1.2 0.6,-1.7 0.4,-0.7 0.9,-1.5 1.6,-2.3 -0.8,-1 -1.2,-2.3 -1.2,-3.9 0,-1.1 0,-2.1 0.2,-2.7 0,-3.6 1.7,-8.7 5.3,-15.4 l 3.5,-6.3 c 2.9,-5.4 5.1,-9.4 6.7,-13.4 1.7,-4 3.5,-10 5.5,-18 1.6,-7 5.4,-14 11.4,-21 l 7.5,-9 c 5.2,-6 8.6,-11 10.5,-15 1.9,-4 2.9,-9 2.9,-13 0,-2 -0.5,-8 -1.6,-18 -1,-10 -1.5,-20 -1.5,-29 0,-7 0.6,-12 1.9,-17 1.3,-5 3.6,-10 7,-14 3,-4 7,-8 13,-10 6,-2 13,-3 21,-3 3,0 6,0 9,1 3,0 7,1 12,3 4,2 8,4 11,7 4,3 7,8 10,13 2,6 4,12 5,20 1,5 1,10 2,17 0,6 1,10 1,13 1,3 1,7 2,12 1,4 2,8 4,11 2,4 4,8 7,12 3,5 7,10 11,16 9,10 16,21 20,32 5,10 8,23 8,36.9 0,6.9 -1,13.6 -3,20.1 2,0 3,0.8 4,2.2 1,1.4 2,4.4 3,9.1 l 1,7.4 c 1,2.2 2,4.3 5,6.1 2,1.8 4,3.3 7,4.5 2,1 5,2.4 7,4.2 2,2 3,4.1 3,6.3 0,3.4 -1,5.9 -3,7.7 -2,2 -4,3.4 -7,4.3 -2,1 -6,3 -12,5.82 -5,2.96 -10,6.55 -15,10.8 l -10,8.51 c -4,3.9 -8,6.7 -11,8.4 -3,1.8 -7,2.7 -11,2.7 l -7,-0.8 c -8,-2.1 -13,-6.1 -16,-12.2 -16,-1.94 -29,-2.9 -37,-2.9"
         inkscape:connector-curvature="0"
         style="fill:#444444;fill-opacity:1" />
    </g>
    <g
       id="g4198"
       transform="matrix(1.249998,0,0,1.249998,529.01529,560.78297)"
       style="fill:#444444;fill-opacity:1"
       inkscape:export-xdpi="14.4"
       inkscape:export-ydpi="14.4">
      <title
         id="title4200">Layer 1</title>
      <g
         id="svg_1"
         style="fill:#444444;fill-opacity:1">
        <path
           id="path4203"
           d="m 127.80597,90.003128 c 0.22484,24.213102 21.24129,32.270612 21.47412,32.373462 -0.1777,0.56826 -3.35808,11.48274 -11.07246,22.75662 -6.66875,9.74684 -13.59003,19.45798 -24.49309,19.6591 -10.71335,0.1974 -14.158289,-6.35304 -26.406679,-6.35304 -12.24469,0 -16.072174,6.1519 -26.213551,6.55044 C 50.57009,165.38797 42.556007,154.4498 35.83184,144.73866 22.091819,124.87421 11.5916,88.606376 25.69074,64.124999 32.694892,51.967448 45.211841,44.268779 58.79787,44.071361 c 10.334515,-0.197132 20.089069,6.952717 26.406689,6.952717 6.313614,0 18.167471,-8.59832 30.629001,-7.335548 5.21682,0.217129 19.86052,2.1073 29.26364,15.871029 -0.75766,0.469692 -17.47293,10.200527 -17.29123,30.443592 m -20.1345,-59.456692 c 5.58738,-6.7633 9.34801,-16.178439 8.32207,-25.546439 -8.05379,0.32369 -17.792628,5.36682 -23.56943,12.126399 -5.177124,5.985922 -9.711121,15.566772 -8.48777,24.749359 8.976891,0.69453 18.14748,-4.561718 23.73513,-11.329308"
           inkscape:connector-curvature="0"
           style="fill:#444444;fill-opacity:1" />
      </g>
    </g>
  </g>
</svg>
