<?xml version="1.0" encoding="UTF-8" standalone="no"?>
<!-- Created with Inkscape (http://www.inkscape.org/) -->

<svg
   xmlns:dc="http://purl.org/dc/elements/1.1/"
   xmlns:cc="http://creativecommons.org/ns#"
   xmlns:rdf="http://www.w3.org/1999/02/22-rdf-syntax-ns#"
   xmlns:svg="http://www.w3.org/2000/svg"
   xmlns="http://www.w3.org/2000/svg"
   xmlns:sodipodi="http://sodipodi.sourceforge.net/DTD/sodipodi-0.dtd"
   xmlns:inkscape="http://www.inkscape.org/namespaces/inkscape"
   width="256"
   height="256"
   id="svg2"
   sodipodi:version="0.32"
   inkscape:version="0.91 r13725"
   sodipodi:docname="rss.svg"
   version="1.0"
   inkscape:output_extension="org.inkscape.output.svg.inkscape"
   inkscape:export-filename="C:\wamp\www\papyrus\img\rss.png"
   inkscape:export-xdpi="8.4375"
   inkscape:export-ydpi="8.4375">
  <defs
     id="defs4" />
  <sodipodi:namedview
     id="base"
     pagecolor="#ffffff"
     bordercolor="#666666"
     borderopacity="1.0"
     inkscape:pageopacity="0.0"
     inkscape:pageshadow="2"
     inkscape:zoom="0.98994949"
     inkscape:cx="352.43178"
     inkscape:cy="119.48269"
     inkscape:document-units="px"
     inkscape:current-layer="layer1"
     inkscape:window-width="1366"
     inkscape:window-height="706"
     inkscape:window-x="-8"
     inkscape:window-y="-8"
     showgrid="false"
     inkscape:window-maximized="1" />
  <metadata
     id="metadata7">
    <rdf:RDF>
      <cc:Work
         rdf:about="">
        <dc:format>image/svg+xml</dc:format>
        <dc:type
           rdf:resource="http://purl.org/dc/dcmitype/StillImage" />
        <dc:title />
        <dc:creator>
          <cc:Agent>
            <dc:title />
          </cc:Agent>
        </dc:creator>
        <dc:subject>
          <rdf:Bag />
        </dc:subject>
        <cc:license
           rdf:resource="http://creativecommons.org/publicdomain/zero/1.0/" />
        <dc:description />
        <dc:contributor>
          <cc:Agent>
            <dc:title />
          </cc:Agent>
        </dc:contributor>
      </cc:Work>
      <cc:License
         rdf:about="http://creativecommons.org/publicdomain/zero/1.0/">
        <cc:permits
           rdf:resource="http://creativecommons.org/ns#Reproduction" />
        <cc:permits
           rdf:resource="http://creativecommons.org/ns#Distribution" />
        <cc:permits
           rdf:resource="http://creativecommons.org/ns#DerivativeWorks" />
      </cc:License>
    </rdf:RDF>
  </metadata>
  <g
     inkscape:label="Layer 1"
     inkscape:groupmode="layer"
     id="layer1"
     transform="translate(-373.642,-318.344)">
    <path
       style="fill:#333333;fill-opacity:1;fill-rule:evenodd;stroke:none;stroke-width:0.875;stroke-linecap:square;stroke-linejoin:miter;stroke-miterlimit:4;stroke-dasharray:0.875, 1.75000000000000000;stroke-dashoffset:0;stroke-opacity:1"
       d="M 45.984375 10.505859 C 26.324298 10.505859 10.496094 26.332111 10.496094 45.992188 L 10.496094 210.00781 C 10.496094 229.66789 26.324298 245.49414 45.984375 245.49414 L 210.01562 245.49414 C 229.6757 245.49414 245.50391 229.66789 245.50391 210.00781 L 245.50391 45.992188 C 245.50391 26.332111 229.6757 10.505859 210.01562 10.505859 L 45.984375 10.505859 z M 53.679688 55.470703 C 153.10809 60.086963 206.35815 132.23762 207.0293 208.37891 L 175.83203 207.93945 C 177.19695 159.23596 141.16587 87.672383 54.558594 86.226562 L 53.679688 55.470703 z M 54.119141 106.43945 C 118.82521 109.8149 154.73966 156.11247 155.62109 208.37891 L 125.30273 208.37891 C 124.79972 162.43814 93.561889 138.38412 54.193359 136.71289 L 54.119141 106.43945 z M 75.009766 165.91797 A 21.438237 20.816838 0 0 1 96.447266 186.73633 A 21.438237 20.816838 0 0 1 75.009766 207.55273 A 21.438237 20.816838 0 0 1 53.572266 186.73633 A 21.438237 20.816838 0 0 1 75.009766 165.91797 z "
       transform="translate(373.642,318.344)"
       id="rect1942" />
  </g>
</svg>
