<?xml version="1.0" encoding="UTF-8" standalone="no"?>
<svg
   xmlns:dc="http://purl.org/dc/elements/1.1/"
   xmlns:cc="http://creativecommons.org/ns#"
   xmlns:rdf="http://www.w3.org/1999/02/22-rdf-syntax-ns#"
   xmlns:svg="http://www.w3.org/2000/svg"
   xmlns="http://www.w3.org/2000/svg"
   xmlns:xlink="http://www.w3.org/1999/xlink"
   xmlns:sodipodi="http://sodipodi.sourceforge.net/DTD/sodipodi-0.dtd"
   xmlns:inkscape="http://www.inkscape.org/namespaces/inkscape"
   version="1.1"
   id="svg2"
   height="300"
   width="300"
   inkscape:version="0.91 r13725"
   sodipodi:docname="uml.svg"
   inkscape:export-filename="C:\wamp\www\papyrus\img\uml.png"
   inkscape:export-xdpi="90"
   inkscape:export-ydpi="90">
  <sodipodi:namedview
     pagecolor="#ffffff"
     bordercolor="#666666"
     borderopacity="1"
     objecttolerance="10"
     gridtolerance="10"
     guidetolerance="10"
     inkscape:pageopacity="0"
     inkscape:pageshadow="2"
     inkscape:window-width="2560"
     inkscape:window-height="1378"
     id="namedview15"
     showgrid="false"
     inkscape:zoom="1.4142136"
     inkscape:cx="166.15671"
     inkscape:cy="154.53674"
     inkscape:window-x="-8"
     inkscape:window-y="-8"
     inkscape:window-maximized="1"
     inkscape:current-layer="svg2" />
  <defs
     id="defs4">
    <linearGradient
       inkscape:collect="always"
       id="linearGradient4151">
      <stop
         style="stop-color:#006578;stop-opacity:1;"
         offset="0"
         id="stop4153" />
      <stop
         style="stop-color:#006578;stop-opacity:0;"
         offset="1"
         id="stop4155" />
    </linearGradient>
    <linearGradient
       inkscape:collect="always"
       xlink:href="#linearGradient4151"
       id="linearGradient4157"
       x1="140.03459"
       y1="149.04167"
       x2="163.10324"
       y2="210.35106"
       gradientUnits="userSpaceOnUse" />
  </defs>
  <metadata
     id="metadata7">
    <rdf:RDF>
      <cc:Work
         rdf:about="">
        <dc:format>image/svg+xml</dc:format>
        <dc:type
           rdf:resource="http://purl.org/dc/dcmitype/StillImage" />
        <dc:title />
      </cc:Work>
    </rdf:RDF>
  </metadata>
  <path
     style="opacity:1;fill:#0099ba;fill-opacity:1;stroke:none;stroke-width:5;stroke-linecap:round;stroke-linejoin:round;stroke-miterlimit:4;stroke-dasharray:none;stroke-dashoffset:0;stroke-opacity:1"
     d="m 37.526322,195.56817 c -4.940393,-1.71079 -9.25401,-6.53069 -10.294196,-11.50242 -0.260303,-1.24415 -0.364589,-21.80037 -0.364589,-71.86526 0,-62.040442 0.0583,-70.346451 0.505761,-72.064398 1.409,-5.409514 6.407004,-10.228824 11.753669,-11.333439 1.212373,-0.250475 34.065364,-0.329132 111.878703,-0.267863 l 110.16232,0.08674 2.28324,1.0812 c 4.21708,1.996948 7.39232,5.41304 8.70897,9.369574 l 0.68758,2.066176 -0.0852,71.858786 -0.0852,71.85877 -1.21233,2.44922 c -1.60174,3.23594 -4.24898,5.88316 -7.48491,7.4849 l -2.44926,1.21233 -111.16592,0.0725 c -105.405755,0.0687 -111.2526,0.0424 -112.838739,-0.50681 z"
     id="path4143"
     inkscape:connector-curvature="0" />
  <path
     style="fill:url(#linearGradient4157);fill-opacity:1;fill-rule:evenodd;stroke:none;stroke-width:1px;stroke-linecap:butt;stroke-linejoin:miter;stroke-opacity:1"
     d="m 88.108708,83.52487 3.115712,-1.5486 c 77.46566,33.9455 84.42464,4.149745 103.23796,-15.167421 L 257.47457,206.86017 122.0339,228.81356 87.995083,157.98984 Z"
     id="path4141"
     inkscape:connector-curvature="0"
     sodipodi:nodetypes="ccccccc" />
  <path
     style="color:#000000;font-style:normal;font-variant:normal;font-weight:normal;font-stretch:normal;font-size:medium;line-height:normal;font-family:Sans;-inkscape-font-specification:Sans;text-indent:0;text-align:start;text-decoration:none;text-decoration-line:none;letter-spacing:normal;word-spacing:normal;text-transform:none;direction:ltr;block-progression:tb;writing-mode:lr-tb;baseline-shift:baseline;text-anchor:start;display:inline;overflow:visible;visibility:visible;fill:#333333;fill-opacity:1;stroke:none;stroke-width:5;marker:none;enable-background:accumulate;stroke-miterlimit:4;stroke-dasharray:none"
     d="M 52.328125 10 C 29.048715 10 9.9999533 29.207447 10 52.681641 L 10 157.73438 L 10 177.84766 L 10 197.13477 C 10 220.60906 29.048715 239.81836 52.328125 239.81836 L 104.25 239.81836 C 96.452179 253.75482 85.727171 263.14814 77.728516 271.44141 C 71.118137 278.29093 75.800624 289.99623 85.152344 290 L 149.72852 290 L 150.27148 290 L 214.84766 290 C 224.19938 289.995 228.88186 278.29093 222.27148 271.44141 C 214.27282 263.14814 203.54781 253.75482 195.75 239.81836 L 247.67188 239.81836 C 270.95128 239.81836 289.99998 220.60906 290 197.13477 L 290 177.84766 L 290 157.73438 L 290 52.681641 C 290 29.207447 270.95128 10 247.67188 10 L 52.328125 10 z M 44.931641 31.216797 L 254.93164 31.216797 C 261.93164 31.216797 268.93164 38.275393 268.93164 45.333984 L 268.93164 179.44727 C 268.93164 186.50586 261.93164 193.56445 254.93164 193.56445 L 44.931641 193.56445 C 37.931641 193.56445 30.931641 186.50586 30.931641 179.44727 L 30.931641 45.333984 C 30.931641 38.275393 37.931431 31.216797 44.931641 31.216797 z M 150 209.16602 C 154.46051 209.16502 158.07748 212.81074 158.07617 217.30859 C 158.07517 221.80466 154.45874 225.44857 150 225.44727 C 145.54303 225.44627 141.9309 221.80287 141.92969 217.30859 C 141.92869 212.81253 145.54125 209.16724 150 209.16602 z "
     id="path4175" />
  <g
     transform="matrix(1.1419127,0,0,1.1419127,-506.72636,-440.81251)"
     id="g5189"
     style="fill:#ffffff">
    <path
       inkscape:connector-curvature="0"
       id="path5118"
       d="m 520.69119,524.45888 0.26786,-65.35716 20.35714,10.17858 6.78572,37.94642 6.69642,-31.69642 20.26786,9.46428 0.26786,65.89286 -13.75,-6.69643 0.35714,-39.19643 -7.76786,34.82143 -12.41071,-5.26786 -7.14286,-40.89285 -0.0893,37.5 z"
       style="fill:#ffffff;fill-opacity:1;stroke:none" />
    <path
       sodipodi:nodetypes="ccccccc"
       inkscape:connector-curvature="0"
       id="path5120"
       d="m 577.74476,485.79815 21.33929,-11.51785 0,47.67858 30.44643,-16.78573 -0.0893,18.30357 -51.33928,26.51786 z"
       style="fill:#ffffff;fill-opacity:1;stroke:none" />
    <path
       inkscape:connector-curvature="0"
       id="path4608"
       d="m 569.4375,417.875 -16,13 c 0,0 22.36109,12.48509 35.90625,19.40625 2.30892,2.12936 2.2269,3.80632 1.15625,6.15625 -1.6283,3.57353 -6.95015,6.496 -11.84375,6.5 -0.8589,9e-4 -1.87694,-0.18522 -3.125,-0.53125 L 539.4375,443.875 l -16,14 c 0,0 25.62934,11.86318 37.90625,18.625 2.54093,1.39947 19.06549,5.38862 29.09375,0.375 9.31256,-4.65581 16.69485,-10.56834 22,-18 3.46616,-4.85555 5.44655,-14.91339 -4,-20 l -39,-21 z"
       style="fill:#ffffff;fill-opacity:1;stroke:none" />
  </g>
</svg>
